<svg xmlns="http://www.w3.org/2000/svg" xmlns:xlink="http://www.w3.org/1999/xlink" width="500" zoomAndPan="magnify" viewBox="0 0 375 374.999991" height="500" preserveAspectRatio="xMidYMid meet" version="1.0"><defs><clipPath id="b734058f84"><path d="M 172 100 L 312 100 L 312 308.960938 L 172 308.960938 Z M 172 100 " clip-rule="nonzero"/></clipPath><clipPath id="79638373bd"><path d="M 63.003906 100 L 183 100 L 183 307 L 63.003906 307 Z M 63.003906 100 " clip-rule="nonzero"/></clipPath></defs><path fill="#737373" d="M 165.148438 163.121094 C 165.148438 175.464844 175.15625 185.46875 187.5 185.46875 C 199.84375 185.46875 209.847656 175.464844 209.847656 163.121094 C 209.847656 150.777344 199.84375 140.769531 187.5 140.769531 C 175.15625 140.769531 165.148438 150.777344 165.148438 163.121094 " fill-opacity="1" fill-rule="nonzero"/><path fill="#d9d9d9" d="M 187.5 79.222656 C 132.75 79.222656 87.976562 121.902344 84.621094 175.808594 C 84.488281 173.652344 84.410156 171.476562 84.410156 169.289062 C 84.410156 112.351562 130.566406 66.203125 187.5 66.203125 C 244.433594 66.203125 290.585938 112.351562 290.585938 169.289062 C 290.585938 171.476562 290.511719 173.652344 290.375 175.808594 C 287.023438 121.902344 242.25 79.222656 187.5 79.222656 " fill-opacity="1" fill-rule="nonzero"/><path fill="#737373" d="M 137.589844 135.222656 L 187.5 109.558594 L 237.40625 135.222656 L 211.804688 138.589844 L 211.804688 160.246094 L 163.195312 160.246094 L 163.195312 138.589844 L 157.121094 137.792969 L 157.121094 151.332031 C 157.121094 152.359375 156.289062 153.191406 155.261719 153.191406 C 154.234375 153.191406 153.398438 152.359375 153.398438 151.332031 L 153.398438 137.304688 L 137.589844 135.222656 " fill-opacity="1" fill-rule="nonzero"/><g clip-path="url(#b734058f84)"><path fill="#737373" d="M 172.53125 280.417969 C 172.558594 277.375 172.679688 275.242188 172.765625 274.375 C 175.304688 246.742188 185.472656 220.277344 202.109375 197.847656 C 213.949219 181.882812 248.433594 152.652344 260.5625 118.136719 C 258.21875 145.105469 242.535156 171.0625 223.761719 197.847656 C 204.644531 225.121094 226.027344 274.707031 226.027344 274.707031 C 269.957031 258.917969 301.375 216.882812 301.375 167.519531 C 301.375 142.375 293.214844 119.140625 279.417969 100.300781 C 299.644531 122.433594 311.992188 151.90625 311.992188 184.257812 C 311.992188 242.699219 271.730469 291.730469 217.425781 305.132812 C 207.84375 307.5 197.816406 308.753906 187.5 308.753906 C 183.203125 308.753906 178.960938 308.535156 174.777344 308.113281 C 172.816406 296.964844 172.46875 286.730469 172.53125 280.417969 " fill-opacity="1" fill-rule="nonzero"/></g><g clip-path="url(#79638373bd)"><path fill="#a6a6a6" d="M 163.53125 280.332031 C 163.558594 277.085938 163.691406 274.679688 163.804688 273.507812 C 165.777344 252.035156 172.117188 231.199219 182.34375 212.214844 C 179.472656 207.269531 176.320312 202.472656 172.890625 197.847656 C 161.046875 181.886719 126.566406 152.660156 114.4375 118.140625 C 116.78125 145.105469 132.460938 171.0625 151.238281 197.847656 C 170.359375 225.125 148.972656 274.707031 148.972656 274.707031 C 105.042969 258.917969 73.625 216.886719 73.625 167.523438 C 73.625 142.375 81.78125 119.140625 95.582031 100.300781 C 75.351562 122.433594 63.007812 151.90625 63.007812 184.261719 C 63.007812 242.699219 103.269531 291.730469 157.570312 305.132812 C 160.160156 305.773438 162.785156 306.328125 165.4375 306.800781 C 163.683594 295.488281 163.480469 285.496094 163.53125 280.332031 " fill-opacity="1" fill-rule="nonzero"/></g></svg>