<svg xmlns="http://www.w3.org/2000/svg" xmlns:xlink="http://www.w3.org/1999/xlink" width="500" zoomAndPan="magnify" viewBox="0 0 375 374.999991" height="500" preserveAspectRatio="xMidYMid meet" version="1.0"><defs><g/><clipPath id="2da4899725"><path d="M 149 109.820312 L 226 109.820312 L 226 151 L 149 151 Z M 149 109.820312 " clip-rule="nonzero"/></clipPath><clipPath id="6ab992e784"><path d="M 181 122 L 233.164062 122 L 233.164062 199.070312 L 181 199.070312 Z M 181 122 " clip-rule="nonzero"/></clipPath><clipPath id="8cf17ef0be"><path d="M 141.664062 122 L 186 122 L 186 199 L 141.664062 199 Z M 141.664062 122 " clip-rule="nonzero"/></clipPath></defs><path fill="#2697e0" d="M 179.269531 145.589844 C 179.269531 150.132812 182.953125 153.816406 187.496094 153.816406 C 192.042969 153.816406 195.726562 150.132812 195.726562 145.589844 C 195.726562 141.042969 192.042969 137.359375 187.496094 137.359375 C 182.953125 137.359375 179.269531 141.042969 179.269531 145.589844 " fill-opacity="1" fill-rule="nonzero"/><g clip-path="url(#2da4899725)"><path fill="#e5f3fb" d="M 187.496094 114.703125 C 167.339844 114.703125 150.859375 130.414062 149.621094 150.261719 C 149.574219 149.464844 149.546875 148.664062 149.546875 147.859375 C 149.546875 126.898438 166.535156 109.910156 187.496094 109.910156 C 208.457031 109.910156 225.445312 126.898438 225.445312 147.859375 C 225.445312 148.664062 225.421875 149.464844 225.371094 150.261719 C 224.136719 130.414062 207.652344 114.703125 187.496094 114.703125 " fill-opacity="1" fill-rule="nonzero"/></g><path fill="#2697e0" d="M 169.125 135.320312 L 187.496094 125.871094 L 205.871094 135.320312 L 196.445312 136.558594 L 196.445312 144.53125 L 178.546875 144.53125 L 178.546875 136.558594 L 176.3125 136.265625 L 176.3125 141.25 C 176.3125 141.628906 176.007812 141.933594 175.628906 141.933594 C 175.25 141.933594 174.941406 141.628906 174.941406 141.25 L 174.941406 136.085938 L 169.125 135.320312 " fill-opacity="1" fill-rule="nonzero"/><g clip-path="url(#6ab992e784)"><path fill="#2697e0" d="M 181.984375 188.773438 C 181.996094 187.652344 182.042969 186.867188 182.070312 186.546875 C 183.007812 176.375 186.75 166.632812 192.875 158.375 C 197.234375 152.496094 209.929688 141.734375 214.394531 129.027344 C 213.53125 138.957031 207.757812 148.511719 200.847656 158.375 C 193.808594 168.414062 201.679688 186.667969 201.679688 186.667969 C 217.851562 180.855469 229.417969 165.382812 229.417969 147.207031 C 229.417969 137.953125 226.414062 129.398438 221.335938 122.460938 C 228.78125 130.609375 233.328125 141.460938 233.328125 153.371094 C 233.328125 174.886719 218.503906 192.9375 198.515625 197.871094 C 194.984375 198.742188 191.292969 199.203125 187.496094 199.203125 C 185.914062 199.203125 184.355469 199.121094 182.8125 198.96875 C 182.089844 194.863281 181.964844 191.09375 181.984375 188.773438 " fill-opacity="1" fill-rule="nonzero"/></g><g clip-path="url(#8cf17ef0be)"><path fill="#fba494" d="M 178.671875 188.738281 C 178.683594 187.546875 178.730469 186.660156 178.773438 186.226562 C 179.5 178.324219 181.832031 170.652344 185.597656 163.664062 C 184.542969 161.84375 183.382812 160.078125 182.117188 158.375 C 177.757812 152.5 165.0625 141.738281 160.601562 129.03125 C 161.460938 138.957031 167.234375 148.511719 174.148438 158.375 C 181.1875 168.414062 173.3125 186.667969 173.3125 186.667969 C 157.140625 180.855469 145.574219 165.382812 145.574219 147.210938 C 145.574219 137.953125 148.578125 129.398438 153.65625 122.460938 C 146.210938 130.609375 141.664062 141.460938 141.664062 153.371094 C 141.664062 174.886719 156.488281 192.9375 176.476562 197.871094 C 177.433594 198.105469 178.398438 198.3125 179.375 198.484375 C 178.726562 194.320312 178.65625 190.640625 178.671875 188.738281 " fill-opacity="1" fill-rule="nonzero"/></g><g fill="#2697e0" fill-opacity="1"><g transform="translate(100.154346, 244.408712)"><g><path d="M 14.78125 0.515625 C 12.863281 0.515625 11.085938 0.171875 9.453125 -0.515625 C 7.816406 -1.203125 6.398438 -2.15625 5.203125 -3.375 C 4.003906 -4.601562 3.066406 -6.039062 2.390625 -7.6875 C 1.722656 -9.332031 1.390625 -11.128906 1.390625 -13.078125 C 1.390625 -15.085938 1.738281 -16.941406 2.4375 -18.640625 C 3.132812 -20.335938 4.097656 -21.804688 5.328125 -23.046875 C 6.566406 -24.285156 8.023438 -25.257812 9.703125 -25.96875 C 11.378906 -26.6875 13.191406 -27.046875 15.140625 -27.046875 C 17.222656 -27.046875 19.148438 -26.640625 20.921875 -25.828125 C 22.703125 -25.023438 24.226562 -23.898438 25.5 -22.453125 L 21.46875 -18.5 C 20.625 -19.425781 19.671875 -20.144531 18.609375 -20.65625 C 17.554688 -21.164062 16.441406 -21.421875 15.265625 -21.421875 C 14.128906 -21.421875 13.085938 -21.21875 12.140625 -20.8125 C 11.191406 -20.40625 10.367188 -19.832031 9.671875 -19.09375 C 8.972656 -18.351562 8.429688 -17.484375 8.046875 -16.484375 C 7.660156 -15.484375 7.46875 -14.390625 7.46875 -13.203125 C 7.46875 -12.015625 7.660156 -10.921875 8.046875 -9.921875 C 8.429688 -8.921875 8.976562 -8.0625 9.6875 -7.34375 C 10.394531 -6.632812 11.234375 -6.082031 12.203125 -5.6875 C 13.179688 -5.289062 14.265625 -5.09375 15.453125 -5.09375 C 16.453125 -5.09375 17.378906 -5.222656 18.234375 -5.484375 C 19.097656 -5.753906 19.898438 -6.191406 20.640625 -6.796875 L 20.640625 -10.390625 L 15.578125 -10.390625 L 15.578125 -15.140625 L 26.40625 -15.140625 L 26.40625 -4.5 C 25.007812 -2.894531 23.300781 -1.65625 21.28125 -0.78125 C 19.269531 0.0820312 17.101562 0.515625 14.78125 0.515625 Z M 14.78125 0.515625 "/></g></g></g><g fill="#2697e0" fill-opacity="1"><g transform="translate(131.301308, 244.408712)"><g><path d="M 2.96875 -26.484375 L 11.265625 -26.484375 C 12.640625 -26.484375 13.910156 -26.269531 15.078125 -25.84375 C 16.253906 -25.425781 17.265625 -24.832031 18.109375 -24.0625 C 18.953125 -23.300781 19.609375 -22.394531 20.078125 -21.34375 C 20.554688 -20.289062 20.796875 -19.144531 20.796875 -17.90625 C 20.796875 -16.320312 20.410156 -14.890625 19.640625 -13.609375 C 18.878906 -12.335938 17.828125 -11.347656 16.484375 -10.640625 L 22.6875 0 L 15.96875 0 L 10.828125 -9.296875 L 8.734375 -9.296875 L 8.734375 0 L 2.96875 0 Z M 10.984375 -14.390625 C 12.222656 -14.390625 13.203125 -14.695312 13.921875 -15.3125 C 14.648438 -15.9375 15.015625 -16.789062 15.015625 -17.875 C 15.015625 -18.945312 14.644531 -19.742188 13.90625 -20.265625 C 13.175781 -20.796875 12.203125 -21.0625 10.984375 -21.0625 L 8.734375 -21.0625 L 8.734375 -14.390625 Z M 10.984375 -14.390625 "/></g></g></g><g fill="#2697e0" fill-opacity="1"><g transform="translate(157.349386, 244.408712)"><g><path d="M 10.828125 -26.953125 L 14.515625 -26.953125 L 24.9375 0 L 18.859375 0 L 17.234375 -4.46875 L 8.109375 -4.46875 L 6.515625 0 L 0.390625 0 Z M 15.453125 -9.453125 L 12.6875 -17.234375 L 9.875 -9.453125 Z M 15.453125 -9.453125 "/></g></g></g><g fill="#2697e0" fill-opacity="1"><g transform="translate(185.452833, 244.408712)"><g><path d="M 2.96875 -26.484375 L 13.4375 -26.484375 C 15.414062 -26.484375 17.238281 -26.144531 18.90625 -25.46875 C 20.582031 -24.800781 22.035156 -23.878906 23.265625 -22.703125 C 24.492188 -21.535156 25.457031 -20.140625 26.15625 -18.515625 C 26.851562 -16.898438 27.203125 -15.144531 27.203125 -13.25 C 27.203125 -11.34375 26.851562 -9.585938 26.15625 -7.984375 C 25.457031 -6.378906 24.492188 -4.984375 23.265625 -3.796875 C 22.035156 -2.609375 20.582031 -1.675781 18.90625 -1 C 17.238281 -0.332031 15.414062 0 13.4375 0 L 2.96875 0 Z M 13.484375 -5.421875 C 14.585938 -5.421875 15.597656 -5.617188 16.515625 -6.015625 C 17.441406 -6.410156 18.25 -6.957031 18.9375 -7.65625 C 19.625 -8.351562 20.15625 -9.175781 20.53125 -10.125 C 20.914062 -11.070312 21.109375 -12.113281 21.109375 -13.25 C 21.109375 -14.375 20.914062 -15.410156 20.53125 -16.359375 C 20.15625 -17.304688 19.625 -18.128906 18.9375 -18.828125 C 18.25 -19.535156 17.441406 -20.082031 16.515625 -20.46875 C 15.597656 -20.863281 14.585938 -21.0625 13.484375 -21.0625 L 8.734375 -21.0625 L 8.734375 -5.421875 Z M 13.484375 -5.421875 "/></g></g></g><g fill="#2697e0" fill-opacity="1"><g transform="translate(216.797425, 244.408712)"><g><path d="M 2.96875 -26.484375 L 8.734375 -26.484375 L 8.734375 0 L 2.96875 0 Z M 2.96875 -26.484375 "/></g></g></g><g fill="#2697e0" fill-opacity="1"><g transform="translate(231.264322, 244.408712)"><g><path d="M 2.96875 -26.484375 L 17.90625 -26.484375 L 17.90625 -21.0625 L 8.734375 -21.0625 L 8.734375 -15.0625 L 15.375 -15.0625 L 15.375 -9.640625 L 8.734375 -9.640625 L 8.734375 0 L 2.96875 0 Z M 2.96875 -26.484375 "/></g></g></g><g fill="#2697e0" fill-opacity="1"><g transform="translate(253.122619, 244.408712)"><g><path d="M 7.90625 -9.484375 L -0.203125 -26.484375 L 6.09375 -26.484375 L 10.953125 -15.765625 L 15.9375 -26.484375 L 21.90625 -26.484375 L 13.671875 -9.5625 L 13.671875 0 L 7.90625 0 Z M 7.90625 -9.484375 "/></g></g></g></svg>