<svg xmlns="http://www.w3.org/2000/svg" xmlns:xlink="http://www.w3.org/1999/xlink" width="178" zoomAndPan="magnify" viewBox="0 0 133.5 30.000001" height="40" preserveAspectRatio="xMidYMid meet" version="1.0"><defs><g/><clipPath id="3074536466"><path d="M 14 4 L 31.667969 4 L 31.667969 29 L 14 29 Z M 14 4 " clip-rule="nonzero"/></clipPath><clipPath id="5331fd6a46"><path d="M 1.910156 4 L 17 4 L 17 29 L 1.910156 29 Z M 1.910156 4 " clip-rule="nonzero"/></clipPath></defs><path fill="#2697e0" d="M 14.109375 11.605469 C 14.109375 13.078125 15.304688 14.273438 16.777344 14.273438 C 18.253906 14.273438 19.449219 13.078125 19.449219 11.605469 C 19.449219 10.128906 18.253906 8.9375 16.777344 8.9375 C 15.304688 8.9375 14.109375 10.128906 14.109375 11.605469 " fill-opacity="1" fill-rule="nonzero"/><path fill="#e5f3fb" d="M 16.777344 1.585938 C 10.242188 1.585938 4.894531 6.683594 4.492188 13.121094 C 4.476562 12.863281 4.46875 12.601562 4.46875 12.339844 C 4.46875 5.542969 9.980469 0.03125 16.777344 0.03125 C 23.578125 0.03125 29.089844 5.542969 29.089844 12.339844 C 29.089844 12.601562 29.082031 12.863281 29.066406 13.121094 C 28.664062 6.683594 23.316406 1.585938 16.777344 1.585938 " fill-opacity="1" fill-rule="nonzero"/><path fill="#2697e0" d="M 10.820312 8.273438 L 16.777344 5.207031 L 22.738281 8.273438 L 19.683594 8.675781 L 19.683594 11.261719 L 13.875 11.261719 L 13.875 8.675781 L 13.152344 8.582031 L 13.152344 10.195312 C 13.152344 10.320312 13.050781 10.417969 12.929688 10.417969 C 12.804688 10.417969 12.707031 10.320312 12.707031 10.195312 L 12.707031 8.523438 L 10.820312 8.273438 " fill-opacity="1" fill-rule="nonzero"/><g clip-path="url(#3074536466)"><path fill="#2697e0" d="M 14.992188 25.613281 C 14.996094 25.25 15.007812 24.996094 15.019531 24.890625 C 15.324219 21.589844 16.535156 18.429688 18.523438 15.753906 C 19.9375 13.84375 24.054688 10.355469 25.503906 6.234375 C 25.222656 9.453125 23.351562 12.554688 21.109375 15.753906 C 18.828125 19.007812 21.378906 24.929688 21.378906 24.929688 C 26.625 23.046875 30.378906 18.027344 30.378906 12.128906 C 30.378906 9.128906 29.402344 6.351562 27.757812 4.101562 C 30.171875 6.746094 31.648438 10.265625 31.648438 14.128906 C 31.648438 21.109375 26.839844 26.964844 20.351562 28.566406 C 19.207031 28.847656 18.011719 28.996094 16.777344 28.996094 C 16.265625 28.996094 15.757812 28.972656 15.257812 28.921875 C 15.023438 27.589844 14.984375 26.367188 14.992188 25.613281 " fill-opacity="1" fill-rule="nonzero"/></g><g clip-path="url(#5331fd6a46)"><path fill="#fba494" d="M 13.917969 25.601562 C 13.921875 25.214844 13.9375 24.929688 13.949219 24.789062 C 14.183594 22.222656 14.941406 19.734375 16.164062 17.46875 C 15.820312 16.878906 15.445312 16.304688 15.035156 15.753906 C 13.621094 13.847656 9.5 10.355469 8.054688 6.234375 C 8.332031 9.453125 10.207031 12.554688 12.449219 15.753906 C 14.730469 19.007812 12.179688 24.929688 12.179688 24.929688 C 6.929688 23.046875 3.179688 18.027344 3.179688 12.128906 C 3.179688 9.128906 4.152344 6.351562 5.800781 4.101562 C 3.386719 6.746094 1.910156 10.265625 1.910156 14.128906 C 1.910156 21.109375 6.71875 26.964844 13.203125 28.566406 C 13.515625 28.640625 13.828125 28.707031 14.144531 28.765625 C 13.933594 27.414062 13.910156 26.21875 13.917969 25.601562 " fill-opacity="1" fill-rule="nonzero"/></g><g fill="#2697e0" fill-opacity="1"><g transform="translate(36.540543, 22.749066)"><g><path d="M 7.734375 0.265625 C 6.722656 0.265625 5.789062 0.0859375 4.9375 -0.265625 C 4.082031 -0.628906 3.34375 -1.128906 2.71875 -1.765625 C 2.09375 -2.410156 1.601562 -3.160156 1.25 -4.015625 C 0.894531 -4.878906 0.71875 -5.820312 0.71875 -6.84375 C 0.71875 -7.882812 0.898438 -8.847656 1.265625 -9.734375 C 1.628906 -10.628906 2.132812 -11.398438 2.78125 -12.046875 C 3.4375 -12.691406 4.203125 -13.203125 5.078125 -13.578125 C 5.953125 -13.953125 6.898438 -14.140625 7.921875 -14.140625 C 9.003906 -14.140625 10.007812 -13.925781 10.9375 -13.5 C 11.875 -13.082031 12.671875 -12.492188 13.328125 -11.734375 L 11.21875 -9.671875 C 10.78125 -10.148438 10.285156 -10.523438 9.734375 -10.796875 C 9.179688 -11.066406 8.597656 -11.203125 7.984375 -11.203125 C 7.390625 -11.203125 6.84375 -11.09375 6.34375 -10.875 C 5.851562 -10.664062 5.421875 -10.367188 5.046875 -9.984375 C 4.679688 -9.597656 4.398438 -9.140625 4.203125 -8.609375 C 4.003906 -8.085938 3.90625 -7.519531 3.90625 -6.90625 C 3.90625 -6.28125 4.003906 -5.707031 4.203125 -5.1875 C 4.398438 -4.664062 4.6875 -4.21875 5.0625 -3.84375 C 5.4375 -3.46875 5.878906 -3.175781 6.390625 -2.96875 C 6.898438 -2.769531 7.460938 -2.671875 8.078125 -2.671875 C 8.609375 -2.671875 9.097656 -2.738281 9.546875 -2.875 C 9.992188 -3.007812 10.410156 -3.238281 10.796875 -3.5625 L 10.796875 -5.4375 L 8.140625 -5.4375 L 8.140625 -7.921875 L 13.8125 -7.921875 L 13.8125 -2.359375 C 13.082031 -1.515625 12.1875 -0.863281 11.125 -0.40625 C 10.070312 0.0390625 8.941406 0.265625 7.734375 0.265625 Z M 7.734375 0.265625 "/></g></g></g><g fill="#2697e0" fill-opacity="1"><g transform="translate(51.486309, 22.749066)"><g><path d="M 1.546875 -13.84375 L 5.890625 -13.84375 C 6.609375 -13.84375 7.273438 -13.734375 7.890625 -13.515625 C 8.503906 -13.296875 9.03125 -12.984375 9.46875 -12.578125 C 9.90625 -12.179688 10.25 -11.707031 10.5 -11.15625 C 10.75 -10.601562 10.875 -10.003906 10.875 -9.359375 C 10.875 -8.535156 10.671875 -7.789062 10.265625 -7.125 C 9.867188 -6.457031 9.320312 -5.9375 8.625 -5.5625 L 11.859375 0 L 8.34375 0 L 5.671875 -4.859375 L 4.5625 -4.859375 L 4.5625 0 L 1.546875 0 Z M 5.75 -7.53125 C 6.394531 -7.53125 6.90625 -7.691406 7.28125 -8.015625 C 7.664062 -8.335938 7.859375 -8.78125 7.859375 -9.34375 C 7.859375 -9.90625 7.664062 -10.320312 7.28125 -10.59375 C 6.894531 -10.875 6.382812 -11.015625 5.75 -11.015625 L 4.5625 -11.015625 L 4.5625 -7.53125 Z M 5.75 -7.53125 "/></g></g></g><g fill="#2697e0" fill-opacity="1"><g transform="translate(63.765408, 22.749066)"><g><path d="M 5.671875 -14.09375 L 7.59375 -14.09375 L 13.046875 0 L 9.859375 0 L 9.015625 -2.328125 L 4.234375 -2.328125 L 3.40625 0 L 0.203125 0 Z M 8.078125 -4.9375 L 6.640625 -9.015625 L 5.171875 -4.9375 Z M 8.078125 -4.9375 "/></g></g></g><g fill="#2697e0" fill-opacity="1"><g transform="translate(77.119446, 22.749066)"><g><path d="M 1.546875 -13.84375 L 7.03125 -13.84375 C 8.0625 -13.84375 9.015625 -13.664062 9.890625 -13.3125 C 10.765625 -12.96875 11.519531 -12.488281 12.15625 -11.875 C 12.800781 -11.257812 13.304688 -10.523438 13.671875 -9.671875 C 14.035156 -8.828125 14.21875 -7.910156 14.21875 -6.921875 C 14.21875 -5.929688 14.035156 -5.015625 13.671875 -4.171875 C 13.304688 -3.335938 12.800781 -2.609375 12.15625 -1.984375 C 11.519531 -1.359375 10.765625 -0.867188 9.890625 -0.515625 C 9.015625 -0.171875 8.0625 0 7.03125 0 L 1.546875 0 Z M 7.046875 -2.828125 C 7.628906 -2.828125 8.160156 -2.929688 8.640625 -3.140625 C 9.117188 -3.347656 9.535156 -3.632812 9.890625 -4 C 10.253906 -4.363281 10.535156 -4.789062 10.734375 -5.28125 C 10.929688 -5.78125 11.03125 -6.328125 11.03125 -6.921875 C 11.03125 -7.515625 10.929688 -8.054688 10.734375 -8.546875 C 10.535156 -9.046875 10.253906 -9.476562 9.890625 -9.84375 C 9.535156 -10.207031 9.117188 -10.492188 8.640625 -10.703125 C 8.160156 -10.910156 7.628906 -11.015625 7.046875 -11.015625 L 4.5625 -11.015625 L 4.5625 -2.828125 Z M 7.046875 -2.828125 "/></g></g></g><g fill="#2697e0" fill-opacity="1"><g transform="translate(92.168569, 22.749066)"><g><path d="M 1.546875 -13.84375 L 4.5625 -13.84375 L 4.5625 0 L 1.546875 0 Z M 1.546875 -13.84375 "/></g></g></g><g fill="#2697e0" fill-opacity="1"><g transform="translate(98.390834, 22.749066)"><g><path d="M 1.546875 -13.84375 L 9.359375 -13.84375 L 9.359375 -11.015625 L 4.5625 -11.015625 L 4.5625 -7.875 L 8.046875 -7.875 L 8.046875 -5.046875 L 4.5625 -5.046875 L 4.5625 0 L 1.546875 0 Z M 1.546875 -13.84375 "/></g></g></g><g fill="#2697e0" fill-opacity="1"><g transform="translate(108.478727, 22.749066)"><g><path d="M 4.140625 -4.96875 L -0.109375 -13.84375 L 3.1875 -13.84375 L 5.71875 -8.25 L 8.328125 -13.84375 L 11.453125 -13.84375 L 7.15625 -5 L 7.15625 0 L 4.140625 0 Z M 4.140625 -4.96875 "/></g></g></g></svg>