<svg viewBox="0 0 1440 320" xmlns="http://www.w3.org/2000/svg">
  <path fill="#2193b0" fill-opacity="0.3" d="M0,160L80,176C160,192,320,224,480,224C640,224,800,192,960,165.3C1120,139,1280,117,1360,106.7L1440,96L1440,320L1360,320C1280,320,1120,320,960,320C800,320,640,320,480,320C320,320,160,320,80,320L0,320Z"></path>
  <path fill="#2a5298" fill-opacity="0.5" d="M0,160L80,144C160,128,320,96,480,101.3C640,107,800,149,960,181.3C1120,213,1280,235,1360,240L1440,245L1440,320L1360,320C1280,320,1120,320,960,320C800,320,640,320,480,320C320,320,160,320,80,320L0,320Z"></path>
</svg>
